PathFileType	4	(X/Y/Z)	C:/Users/opensim2020/Desktop/walking_exp_matlab/subject01_walking04_straight_04.trc																																																																																																																															
DataRate	CameraRate	NumFrames	NumMarkers	Units	OrigDataRate	OrigDataStartFrame	OrigNumFrames																																																																																																																											
100	100	4	43	mm	100	2801	279																																																																																																																											
Frame#	Time	LFHD			RFHD			LBHD			RBHD			C7			T10			CLAV			STRN			RBAK			LSHO			LUPA			LELB			LFRM			LWRA			LWRB			LFIN			RSHO			RUPA			RELB			RFRM			RWRA			RWRB			RFIN			LASI			RASI			LPSI			RPSI			LTHI			LKNE			LTIB			LANK			LHEE			LTOE			RTHI			RKNE			RTIB			RANK			RHEE			RTOE			*39			*40			*41			*42		
		X1	Y1	Z1	X2	Y2	Z2	X3	Y3	Z3	X4	Y4	Z4	X5	Y5	Z5	X6	Y6	Z6	X7	Y7	Z7	X8	Y8	Z8	X9	Y9	Z9	X10	Y10	Z10	X11	Y11	Z11	X12	Y12	Z12	X13	Y13	Z13	X14	Y14	Z14	X15	Y15	Z15	X16	Y16	Z16	X17	Y17	Z17	X18	Y18	Z18	X19	Y19	Z19	X20	Y20	Z20	X21	Y21	Z21	X22	Y22	Z22	X23	Y23	Z23	X24	Y24	Z24	X25	Y25	Z25	X26	Y26	Z26	X27	Y27	Z27	X28	Y28	Z28	X29	Y29	Z29	X30	Y30	Z30	X31	Y31	Z31	X32	Y32	Z32	X33	Y33	Z33	X34	Y34	Z34	X35	Y35	Z35	X36	Y36	Z36	X37	Y37	Z37	X38	Y38	Z38	X39	Y39	Z39	X40	Y40	Z40	X41	Y41	Z41	X42	Y42	Z42	X43	Y43	Z43
																																																																																																																																		
105	1.04	-914.61871	1664.43347	-1495.57153	-893.29816	1669.93164	-1383.20459	-1025.94983	1609.02698	-1479.25366	-1007.52496	1613.72632	-1360.51465	-1054.65808	1421.77527	-1439.50952	-1086.77026	1129.35718	-1425.97632	-906.75604	1358.02734	-1443.79773	-862.4137	1204.75171	-1452.70972	-1101.75403	1226.76099	-1359.90393	-974.79681	1384.88013	-1602.58386	-985.56628	1205.73755	-1695.86255	-967.31396	1053.87036	-1714.7959	-866.38824	994.59387	-1740.44739	-731.05798	967.078	-1723.58838	-766.82257	924.86084	-1746.90173	-686.1427	912.14258	-1762.67053	-966.76526	1386.06079	-1288.97266	-1048.61023	1194.81104	-1190.34802	-1067.76892	1073.57336	-1187.16162	-1070.15417	955.42853	-1151.29065	-1019.1059	821.81592	-1160.53857	-1064.39502	835.54492	-1124.25781	-1049.09839	749.47644	-1125.03284	-928.08087	922.48389	-1550.47791	-899.84888	928.94458	-1334.76501	-1105.29541	937.13788	-1468.79309	-1086.18152	934.45007	-1325.72522	-1033.62024	601.69568	-1599.10693	-1079.81567	471.44934	-1586.44885	-1194.79065	318.34137	-1588.04834	-1294.56519	120.5111	-1538.37146	-1340.52185	108.90871	-1480.87549	-1170.81262	38.25258	-1555.11523	-872.41125	605.51019	-1270.5365	-824.34247	457.98636	-1299.99463	-830.3158	282.87692	-1290.54272	-791.1441	80.22643	-1331.50964	-831.68524	34.32621	-1380.19836	-647.68048	64.30459	-1334.09924	-909.94305	1702.58154	-1404.23694	-1973.25598	1023.46552	3101.86035	-2012.52332	1022.05194	3140.62451	NaN	NaN	NaN
106	1.05	-905.26746	1665.32092	-1492.81677	-883.62506	1670.68665	-1380.58679	-1016.47052	1609.77844	-1476.34973	-997.72076	1614.31873	-1357.71582	-1044.89343	1422.10254	-1436.82361	-1075.78223	1129.36108	-1424.56128	-896.94672	1358.58948	-1441.61182	-852.12921	1205.47681	-1450.82556	-1091.46118	1226.55005	-1358.10962	-965.69043	1385.44067	-1600.30127	-976.66077	1206.21375	-1693.80811	-958.8194	1054.23694	-1713.23242	-858.18872	994.672	-1739.30371	-722.91949	966.65125	-1722.56177	-758.86267	924.67786	-1746.0896	-678.15936	911.82251	-1761.82495	-956.98047	1385.4967	-1286.49695	-1037.547	1193.27734	-1188.35144	-1055.68188	1071.74109	-1185.55457	-1057.97815	953.54938	-1150.06409	-1006.95734	819.96088	-1160.44397	-1052.08484	833.4718	-1123.75085	-1036.62537	747.67224	-1124.87976	-916.37738	922.46844	-1549.35034	-888.48743	928.57971	-1333.83215	-1093.85889	936.86578	-1468.04382	-1074.16467	934.13489	-1324.30383	-1021.17719	601.36749	-1598.6543	-1067.23218	471.146	-1586.46204	-1185.34949	320.4762	-1588.57275	-1290.39026	125.62363	-1539.70313	-1336.91418	116.06072	-1482.45874	-1170.48926	38.14699	-1555.01819	-864.27466	605.25989	-1269.76819	-815.58319	458.40976	-1298.69299	-822.83466	283.57449	-1289.97144	-787.55603	79.71004	-1330.64221	-830.005	35.51928	-1379.24353	-644.41388	59.14964	-1335.42102	-900.57892	1703.31067	-1401.53711	-1973.16101	1023.38104	3101.76978	-2012.53271	1021.99524	3140.55371	NaN	NaN	NaN
107	1.06	-895.69238	1666.328	-1490.1106	-873.5318	1671.61914	-1378.11023	-1006.88806	1610.90564	-1473.31299	-987.758	1615.33643	-1354.83362	-1034.79883	1422.90344	-1434.34766	-1064.92346	1129.79834	-1423.24792	-887.22211	1359.52856	-1439.25623	-841.71143	1206.62134	-1448.97559	-1081.44165	1226.98206	-1356.09717	-956.36395	1386.41724	-1598.2085	-968.02832	1207.02856	-1691.59229	-950.47137	1055.00537	-1711.48718	-850.33246	994.73761	-1737.94946	-715.31927	965.91412	-1721.52063	-751.4801	924.27765	-1745.20361	-670.86285	911.04565	-1760.86865	-947.3175	1385.34399	-1284.02881	-1026.10461	1192.04065	-1186.29065	-1043.25488	1070.31628	-1183.78516	-1045.29749	951.91498	-1148.80359	-994.4613	818.41479	-1160.31372	-1039.17151	831.70605	-1123.26489	-1023.66595	746.35822	-1124.76636	-904.58411	922.72327	-1548.13293	-877.20123	928.84845	-1332.81726	-1082.41602	936.82837	-1467.53418	-1063.50317	934.81201	-1323.71094	-1007.92548	601.28015	-1598.0813	-1053.66089	470.8613	-1586.375	-1175.16711	323.1088	-1589.40442	-1285.40308	131.19016	-1540.90332	-1332.16357	123.78229	-1483.8562	-1170.01978	38.28836	-1554.91504	-856.23798	605.73438	-1267.52759	-806.46558	459.65863	-1297.72754	-814.76581	284.89017	-1288.49146	-785.15381	78.88111	-1329.89319	-828.94104	36.4408	-1378.40942	-642.30804	53.87732	-1336.85144	-890.82977	1704.38379	-1398.84924	-1973.22534	1023.33478	3101.90015	-2012.59375	1022.09595	3140.60303	NaN	NaN	NaN
108	1.07	-886.06854	1667.38965	-1487.58435	-863.49841	1672.61987	-1375.57324	-997.25061	1612.23718	-1470.31616	-977.64807	1616.56836	-1351.8125	-1024.59741	1423.87488	-1431.96594	-1054.20288	1130.42639	-1421.9364	-877.35883	1360.65808	-1437.04272	-831.09894	1208.22083	-1447.18054	-1071.50146	1227.64026	-1354.04724	-946.75592	1387.75366	-1596.10876	-959.68396	1208.2478	-1689.26965	-942.35413	1056.24939	-1709.71619	-842.88049	995.01654	-1736.4801	-708.25031	964.77753	-1720.30835	-744.77142	923.48541	-1744.01746	-664.29071	909.85938	-1759.89624	-937.83691	1385.39478	-1281.90833	-1014.59253	1191.05981	-1184.28516	-1030.47571	1069.15027	-1182.07898	-1032.13794	950.81012	-1147.65759	-981.39697	817.19446	-1160.33325	-1025.82861	830.32935	-1122.5509	-1010.28638	745.2254	-1124.32605	-892.83057	923.1427	-1546.67432	-866.2146	929.71631	-1331.68665	-1070.94775	937.18835	-1467.33875	-1052.42468	936.18494	-1323.27869	-993.89185	601.15881	-1597.33521	-1038.70508	470.69223	-1586.44763	-1163.51514	325.63776	-1589.56104	-1279.76501	137.63615	-1542.32495	-1326.2489	132.19302	-1485.11511	-1169.08521	38.01424	-1554.48987	-848.71606	606.28387	-1264.90796	-797.59894	460.37241	-1296.92432	-807.63019	285.53647	-1286.77405	-783.05359	78.81099	-1329.17065	-828.02057	37.43806	-1377.70801	-640.44696	49.99223	-1337.84021	-880.64185	1705.44373	-1396.17981	-1973.07153	1023.37915	3101.93726	-2012.46912	1022.04297	3140.76367	NaN	NaN	NaN
